<svg xmlns="http://www.w3.org/2000/svg" xmlns:xlink="http://www.w3.org/1999/xlink" width="1080" zoomAndPan="magnify" viewBox="0 0 810 809.999993" height="1080" preserveAspectRatio="xMidYMid meet" version="1.0"><defs><clipPath id="id1"><path d="M 255 243 L 567 243 L 567 555 L 255 555 Z M 255 243 " clip-rule="nonzero"/></clipPath></defs><g clip-path="url(#id1)"><path fill="#000000" d="M 411.273438 242.882812 C 408.722656 242.882812 406.175781 242.945312 403.625 243.070312 C 401.078125 243.195312 398.535156 243.382812 395.996094 243.632812 C 393.460938 243.882812 390.929688 244.195312 388.40625 244.570312 C 385.882812 244.945312 383.371094 245.378906 380.871094 245.878906 C 378.367188 246.375 375.878906 246.933594 373.40625 247.554688 C 370.933594 248.171875 368.476562 248.851562 366.035156 249.59375 C 363.59375 250.332031 361.171875 251.132812 358.769531 251.992188 C 356.371094 252.851562 353.992188 253.769531 351.632812 254.746094 C 349.277344 255.722656 346.945312 256.753906 344.640625 257.84375 C 342.335938 258.9375 340.058594 260.082031 337.808594 261.285156 C 335.558594 262.488281 333.339844 263.742188 331.152344 265.054688 C 328.964844 266.367188 326.8125 267.730469 324.691406 269.148438 C 322.570312 270.5625 320.484375 272.03125 318.4375 273.550781 C 316.386719 275.070312 314.378906 276.640625 312.40625 278.257812 C 310.433594 279.875 308.503906 281.539062 306.613281 283.253906 C 304.726562 284.964844 302.878906 286.726562 301.074219 288.527344 C 299.269531 290.332031 297.511719 292.179688 295.800781 294.066406 C 294.085938 295.957031 292.421875 297.886719 290.804688 299.859375 C 289.1875 301.832031 287.617188 303.84375 286.097656 305.890625 C 284.578125 307.9375 283.109375 310.023438 281.695312 312.144531 C 280.277344 314.265625 278.914062 316.417969 277.601562 318.605469 C 276.289062 320.792969 275.035156 323.011719 273.832031 325.261719 C 272.628906 327.511719 271.480469 329.789062 270.390625 332.09375 C 269.300781 334.398438 268.269531 336.730469 267.292969 339.085938 C 266.316406 341.445312 265.398438 343.824219 264.539062 346.222656 C 263.679688 348.625 262.878906 351.046875 262.140625 353.488281 C 261.398438 355.929688 260.71875 358.386719 260.097656 360.859375 C 259.480469 363.332031 258.921875 365.820312 258.421875 368.324219 C 257.925781 370.824219 257.488281 373.335938 257.117188 375.859375 C 256.742188 378.382812 256.429688 380.914062 256.179688 383.453125 C 255.929688 385.988281 255.742188 388.53125 255.617188 391.078125 C 255.492188 393.628906 255.429688 396.175781 255.429688 398.726562 C 255.429688 401.277344 255.492188 403.824219 255.617188 406.375 C 255.742188 408.921875 255.929688 411.464844 256.179688 414.003906 C 256.429688 416.539062 256.742188 419.070312 257.117188 421.59375 C 257.488281 424.117188 257.925781 426.628906 258.421875 429.128906 C 258.921875 431.632812 259.480469 434.121094 260.097656 436.59375 C 260.71875 439.066406 261.398438 441.523438 262.140625 443.964844 C 262.878906 446.40625 263.679688 448.828125 264.539062 451.230469 C 265.398438 453.628906 266.316406 456.007812 267.292969 458.367188 C 268.269531 460.722656 269.300781 463.054688 270.390625 465.359375 C 271.480469 467.664062 272.628906 469.941406 273.832031 472.191406 C 275.035156 474.441406 276.289062 476.660156 277.601562 478.847656 C 278.914062 481.035156 280.277344 483.1875 281.695312 485.308594 C 283.109375 487.429688 284.578125 489.515625 286.097656 491.5625 C 287.617188 493.613281 289.1875 495.621094 290.804688 497.59375 C 292.421875 499.566406 294.085938 501.496094 295.800781 503.386719 C 297.511719 505.273438 299.269531 507.121094 301.074219 508.925781 C 302.878906 510.730469 304.726562 512.488281 306.613281 514.199219 C 308.503906 515.914062 310.433594 517.578125 312.40625 519.195312 C 314.378906 520.8125 316.386719 522.382812 318.4375 523.902344 C 320.484375 525.421875 322.570312 526.890625 324.691406 528.304688 C 326.8125 529.722656 328.964844 531.085938 331.152344 532.398438 C 333.339844 533.710938 335.558594 534.964844 337.808594 536.167969 C 340.058594 537.371094 342.335938 538.515625 344.640625 539.609375 C 346.945312 540.699219 349.277344 541.730469 351.632812 542.707031 C 353.992188 543.683594 356.371094 544.601562 358.769531 545.460938 C 361.171875 546.320312 363.59375 547.121094 366.035156 547.859375 C 368.476562 548.601562 370.933594 549.28125 373.40625 549.898438 C 375.878906 550.519531 378.367188 551.078125 380.871094 551.578125 C 383.371094 552.074219 385.882812 552.507812 388.40625 552.882812 C 390.929688 553.257812 393.460938 553.570312 395.996094 553.820312 C 398.535156 554.070312 401.078125 554.257812 403.625 554.382812 C 406.171875 554.507812 408.722656 554.570312 411.273438 554.570312 C 413.824219 554.570312 416.371094 554.507812 418.921875 554.382812 C 421.46875 554.257812 424.011719 554.070312 426.546875 553.820312 C 429.085938 553.570312 431.617188 553.257812 434.140625 552.882812 C 436.664062 552.507812 439.175781 552.074219 441.675781 551.578125 C 444.179688 551.078125 446.667969 550.519531 449.140625 549.898438 C 451.613281 549.28125 454.070312 548.601562 456.511719 547.859375 C 458.953125 547.121094 461.375 546.320312 463.777344 545.460938 C 466.175781 544.601562 468.554688 543.683594 470.914062 542.707031 C 473.269531 541.730469 475.597656 540.699219 477.90625 539.609375 C 480.210938 538.519531 482.488281 537.371094 484.738281 536.167969 C 486.988281 534.964844 489.207031 533.710938 491.394531 532.398438 C 493.582031 531.085938 495.734375 529.722656 497.855469 528.304688 C 499.976562 526.890625 502.0625 525.421875 504.109375 523.902344 C 506.15625 522.382812 508.167969 520.8125 510.140625 519.195312 C 512.109375 517.578125 514.042969 515.914062 515.933594 514.199219 C 517.820312 512.488281 519.667969 510.730469 521.472656 508.925781 C 523.273438 507.121094 525.035156 505.273438 526.746094 503.386719 C 528.457031 501.496094 530.125 499.566406 531.742188 497.59375 C 533.359375 495.621094 534.929688 493.613281 536.449219 491.5625 C 537.96875 489.515625 539.4375 487.429688 540.851562 485.308594 C 542.269531 483.1875 543.632812 481.035156 544.945312 478.847656 C 546.257812 476.660156 547.511719 474.441406 548.714844 472.191406 C 549.917969 469.941406 551.0625 467.664062 552.15625 465.359375 C 553.246094 463.054688 554.277344 460.722656 555.253906 458.367188 C 556.230469 456.007812 557.148438 453.628906 558.007812 451.230469 C 558.867188 448.828125 559.667969 446.40625 560.40625 443.964844 C 561.148438 441.523438 561.828125 439.066406 562.445312 436.59375 C 563.066406 434.121094 563.625 431.632812 564.121094 429.128906 C 564.621094 426.628906 565.054688 424.117188 565.429688 421.59375 C 565.804688 419.070312 566.117188 416.539062 566.367188 414.003906 C 566.617188 411.464844 566.804688 408.921875 566.929688 406.375 C 567.054688 403.824219 567.117188 401.277344 567.117188 398.726562 C 567.117188 396.175781 567.054688 393.628906 566.929688 391.078125 C 566.804688 388.53125 566.617188 385.988281 566.367188 383.453125 C 566.117188 380.914062 565.804688 378.382812 565.429688 375.859375 C 565.054688 373.335938 564.621094 370.824219 564.121094 368.324219 C 563.625 365.820312 563.066406 363.332031 562.445312 360.859375 C 561.828125 358.386719 561.148438 355.929688 560.40625 353.488281 C 559.667969 351.046875 558.867188 348.625 558.007812 346.222656 C 557.148438 343.824219 556.230469 341.445312 555.253906 339.085938 C 554.277344 336.730469 553.246094 334.398438 552.15625 332.09375 C 551.0625 329.789062 549.917969 327.511719 548.714844 325.261719 C 547.511719 323.011719 546.257812 320.792969 544.945312 318.605469 C 543.632812 316.417969 542.269531 314.265625 540.851562 312.144531 C 539.4375 310.023438 537.96875 307.9375 536.449219 305.890625 C 534.929688 303.84375 533.359375 301.832031 531.742188 299.859375 C 530.125 297.886719 528.457031 295.957031 526.746094 294.066406 C 525.03125 292.179688 523.273438 290.332031 521.472656 288.527344 C 519.667969 286.726562 517.820312 284.964844 515.929688 283.253906 C 514.042969 281.539062 512.109375 279.875 510.140625 278.257812 C 508.167969 276.640625 506.15625 275.070312 504.109375 273.550781 C 502.0625 272.03125 499.976562 270.5625 497.855469 269.148438 C 495.734375 267.730469 493.582031 266.367188 491.394531 265.054688 C 489.207031 263.742188 486.988281 262.488281 484.738281 261.285156 C 482.488281 260.082031 480.210938 258.9375 477.90625 257.84375 C 475.597656 256.753906 473.269531 255.722656 470.914062 254.746094 C 468.554688 253.769531 466.175781 252.851562 463.777344 251.992188 C 461.375 251.132812 458.953125 250.332031 456.511719 249.59375 C 454.070312 248.851562 451.613281 248.171875 449.140625 247.554688 C 446.667969 246.933594 444.179688 246.375 441.675781 245.878906 C 439.175781 245.378906 436.664062 244.945312 434.140625 244.570312 C 431.617188 244.195312 429.085938 243.882812 426.546875 243.632812 C 424.011719 243.382812 421.46875 243.195312 418.921875 243.070312 C 416.371094 242.945312 413.824219 242.882812 411.273438 242.882812 Z M 320.964844 321.15625 L 501.585938 321.15625 C 505.953125 321.183594 510.03125 322.28125 513.820312 324.453125 L 418.546875 390.757812 C 418.019531 391.121094 417.46875 391.445312 416.890625 391.726562 C 416.316406 392.007812 415.722656 392.246094 415.109375 392.4375 C 414.5 392.628906 413.875 392.769531 413.242188 392.867188 C 412.609375 392.964844 411.972656 393.011719 411.332031 393.015625 C 410.691406 393.015625 410.054688 392.964844 409.421875 392.871094 C 408.785156 392.773438 408.164062 392.628906 407.550781 392.4375 C 406.941406 392.25 406.347656 392.011719 405.769531 391.730469 C 405.195312 391.453125 404.644531 391.128906 404.117188 390.765625 L 308.734375 324.449219 C 312.523438 322.28125 316.601562 321.183594 320.964844 321.15625 Z M 501.585938 476.296875 L 320.964844 476.296875 C 320.136719 476.296875 319.3125 476.253906 318.488281 476.171875 C 317.664062 476.089844 316.847656 475.96875 316.035156 475.808594 C 315.226562 475.644531 314.425781 475.445312 313.632812 475.203125 C 312.839844 474.964844 312.0625 474.683594 311.300781 474.367188 C 310.535156 474.050781 309.789062 473.695312 309.058594 473.308594 C 308.332031 472.917969 307.621094 472.492188 306.933594 472.03125 C 306.246094 471.570312 305.582031 471.078125 304.945312 470.554688 C 304.304688 470.03125 303.691406 469.476562 303.109375 468.890625 C 302.523438 468.304688 301.96875 467.695312 301.441406 467.054688 C 300.917969 466.414062 300.425781 465.75 299.964844 465.0625 C 299.507812 464.375 299.082031 463.667969 298.691406 462.9375 C 298.300781 462.207031 297.949219 461.460938 297.628906 460.699219 C 297.3125 459.933594 297.035156 459.15625 296.792969 458.363281 C 296.554688 457.574219 296.351562 456.773438 296.191406 455.960938 C 296.027344 455.148438 295.90625 454.332031 295.824219 453.511719 C 295.742188 452.6875 295.703125 451.863281 295.699219 451.035156 L 295.699219 346.417969 C 295.710938 344.113281 296.03125 341.851562 296.667969 339.636719 C 297.304688 337.421875 298.226562 335.332031 299.4375 333.375 L 396.902344 401.132812 C 397.957031 401.863281 399.058594 402.507812 400.210938 403.070312 C 401.363281 403.628906 402.550781 404.101562 403.773438 404.484375 C 405 404.867188 406.242188 405.152344 407.511719 405.347656 C 408.777344 405.539062 410.050781 405.636719 411.332031 405.636719 C 412.617188 405.632812 413.890625 405.539062 415.15625 405.34375 C 416.421875 405.152344 417.667969 404.863281 418.890625 404.480469 C 420.113281 404.097656 421.300781 403.625 422.453125 403.0625 C 423.605469 402.5 424.707031 401.855469 425.761719 401.125 L 523.113281 333.371094 C 524.324219 335.332031 525.25 337.417969 525.882812 339.636719 C 526.519531 341.851562 526.839844 344.113281 526.851562 346.417969 L 526.851562 451.035156 C 526.851562 451.863281 526.808594 452.6875 526.726562 453.511719 C 526.644531 454.332031 526.523438 455.148438 526.359375 455.960938 C 526.199219 456.773438 525.996094 457.574219 525.757812 458.367188 C 525.515625 459.15625 525.238281 459.933594 524.921875 460.699219 C 524.605469 461.460938 524.25 462.210938 523.859375 462.9375 C 523.46875 463.667969 523.046875 464.375 522.585938 465.0625 C 522.125 465.75 521.632812 466.414062 521.109375 467.054688 C 520.582031 467.695312 520.027344 468.304688 519.445312 468.890625 C 518.859375 469.476562 518.246094 470.03125 517.605469 470.554688 C 516.96875 471.082031 516.304688 471.574219 515.617188 472.03125 C 514.929688 472.492188 514.222656 472.917969 513.492188 473.308594 C 512.761719 473.699219 512.015625 474.050781 511.25 474.367188 C 510.488281 474.683594 509.710938 474.964844 508.917969 475.203125 C 508.125 475.445312 507.324219 475.644531 506.515625 475.808594 C 505.703125 475.96875 504.886719 476.09375 504.0625 476.171875 C 503.238281 476.253906 502.414062 476.296875 501.585938 476.296875 Z M 501.585938 476.296875 " fill-opacity="1" fill-rule="nonzero"/></g></svg>