<svg xmlns="http://www.w3.org/2000/svg" xmlns:xlink="http://www.w3.org/1999/xlink" width="1080" zoomAndPan="magnify" viewBox="0 0 810 809.999993" height="1080" preserveAspectRatio="xMidYMid meet" version="1.0"><path fill="#010101" d="M 404.929688 272.210938 C 448.164062 272.210938 453.273438 272.355469 470.382812 273.136719 C 486.140625 273.84375 494.730469 276.472656 500.480469 278.742188 C 508.007812 281.652344 513.402344 285.203125 519.082031 290.882812 C 524.761719 296.5625 528.238281 301.957031 531.222656 309.484375 C 533.421875 315.160156 536.046875 323.75 536.828125 339.582031 C 537.609375 356.691406 537.75 361.800781 537.75 405.035156 C 537.75 448.269531 537.609375 453.378906 536.828125 470.488281 C 536.121094 486.25 533.492188 494.839844 531.222656 500.589844 C 528.308594 508.113281 524.761719 513.507812 519.082031 519.1875 C 513.402344 524.867188 508.007812 528.347656 500.480469 531.328125 C 494.804688 533.527344 486.214844 536.15625 470.382812 536.9375 C 453.273438 537.714844 448.164062 537.859375 404.929688 537.859375 C 361.695312 537.859375 356.585938 537.714844 339.476562 536.9375 C 323.714844 536.226562 315.125 533.597656 309.375 531.328125 C 301.851562 528.417969 296.457031 524.867188 290.777344 519.1875 C 285.097656 513.507812 281.617188 508.113281 278.636719 500.589844 C 276.4375 494.910156 273.808594 486.320312 273.027344 470.488281 C 272.246094 453.378906 272.105469 448.269531 272.105469 405.035156 C 272.105469 361.800781 272.246094 356.691406 273.027344 339.582031 C 273.738281 323.824219 276.367188 315.234375 278.636719 309.484375 C 281.546875 301.957031 285.097656 296.5625 290.777344 290.882812 C 296.457031 285.203125 301.851562 281.726562 309.375 278.742188 C 315.054688 276.542969 323.644531 273.917969 339.476562 273.136719 C 356.585938 272.355469 361.695312 272.210938 404.929688 272.210938 M 404.929688 243.035156 C 360.914062 243.035156 355.449219 243.25 338.128906 244.03125 C 320.875 244.808594 309.09375 247.578125 298.796875 251.554688 C 288.148438 255.671875 279.132812 261.210938 270.117188 270.226562 C 261.171875 279.242188 255.636719 288.257812 251.519531 298.90625 C 247.542969 309.199219 244.773438 320.984375 243.992188 338.234375 C 243.214844 355.484375 243 361.019531 243 404.964844 C 243 448.980469 243.214844 454.445312 243.992188 471.765625 C 244.773438 489.015625 247.542969 500.800781 251.519531 511.09375 C 255.636719 521.742188 261.171875 530.757812 270.1875 539.773438 C 279.203125 548.789062 288.222656 554.328125 298.871094 558.445312 C 309.164062 562.421875 320.949219 565.191406 338.199219 565.96875 C 355.449219 566.75 360.984375 566.964844 405 566.964844 C 449.015625 566.964844 454.480469 566.75 471.800781 565.96875 C 489.050781 565.191406 500.835938 562.421875 511.128906 558.445312 C 521.777344 554.328125 530.796875 548.789062 539.8125 539.773438 C 548.828125 530.757812 554.363281 521.742188 558.480469 511.09375 C 562.457031 500.800781 565.226562 489.015625 566.007812 471.765625 C 566.785156 454.515625 567 448.980469 567 404.964844 C 567 360.949219 566.785156 355.484375 566.007812 338.164062 C 565.226562 320.910156 562.457031 309.128906 558.480469 298.832031 C 554.363281 288.183594 548.828125 279.167969 539.8125 270.152344 C 530.792969 261.136719 521.777344 255.601562 511.128906 251.484375 C 500.835938 247.507812 489.050781 244.738281 471.800781 243.957031 C 454.480469 243.25 448.941406 243.035156 404.929688 243.035156 " fill-opacity="1" fill-rule="nonzero"/><path fill="#010101" d="M 404.929688 321.835938 C 359 321.835938 321.800781 359.035156 321.800781 404.964844 C 321.800781 450.894531 359.070312 488.164062 405 488.164062 C 450.929688 488.164062 488.199219 450.964844 488.199219 404.964844 C 488.128906 359.035156 450.859375 321.835938 404.929688 321.835938 M 404.929688 458.988281 C 375.113281 458.988281 350.976562 434.851562 350.976562 405.035156 C 350.976562 375.21875 375.113281 351.082031 404.929688 351.082031 C 434.746094 351.082031 458.882812 375.21875 458.882812 405.035156 C 458.953125 434.78125 434.746094 458.988281 404.929688 458.988281 " fill-opacity="1" fill-rule="nonzero"/><path fill="#010101" d="M 510.847656 318.570312 C 510.847656 329.289062 502.113281 338.019531 491.394531 338.019531 C 480.675781 338.019531 471.945312 329.289062 471.945312 318.570312 C 471.945312 307.851562 480.675781 299.117188 491.394531 299.117188 C 502.113281 299.117188 510.847656 307.777344 510.847656 318.570312 " fill-opacity="1" fill-rule="nonzero"/></svg>