<svg xmlns="http://www.w3.org/2000/svg" xmlns:xlink="http://www.w3.org/1999/xlink" width="1080" zoomAndPan="magnify" viewBox="0 0 810 809.999993" height="1080" preserveAspectRatio="xMidYMid meet" version="1.0"><defs><clipPath id="id1"><path d="M 243 246.238281 L 567 246.238281 L 567 563 L 243 563 Z M 243 246.238281 " clip-rule="nonzero"/></clipPath></defs><g clip-path="url(#id1)"><path fill="#161614" d="M 405 246.355469 C 315.542969 246.355469 243 318.820312 243 408.214844 C 243 479.738281 289.417969 540.414062 353.785156 561.808594 C 361.882812 563.3125 364.855469 558.292969 364.855469 554.019531 C 364.855469 550.160156 364.703125 537.414062 364.636719 523.882812 C 319.566406 533.683594 310.054688 504.789062 310.054688 504.789062 C 302.6875 486.074219 292.066406 481.105469 292.066406 481.105469 C 277.371094 471.0625 293.175781 471.265625 293.175781 471.265625 C 309.445312 472.40625 318.011719 487.945312 318.011719 487.945312 C 332.460938 512.691406 355.910156 505.535156 365.152344 501.402344 C 366.605469 490.941406 370.804688 483.796875 375.433594 479.75 C 339.457031 475.667969 301.628906 461.78125 301.628906 399.769531 C 301.628906 382.089844 307.957031 367.652344 318.320312 356.316406 C 316.640625 352.238281 311.09375 335.777344 319.890625 313.480469 C 319.890625 313.480469 333.496094 309.132812 364.453125 330.074219 C 377.371094 326.488281 391.230469 324.6875 405 324.625 C 418.769531 324.6875 432.640625 326.488281 445.589844 330.074219 C 476.507812 309.132812 490.089844 313.480469 490.089844 313.480469 C 498.910156 335.777344 493.367188 352.238281 491.683594 356.316406 C 502.0625 367.652344 508.351562 382.089844 508.351562 399.769531 C 508.351562 461.933594 470.457031 475.617188 434.375 479.625 C 440.183594 484.644531 445.375 494.496094 445.375 509.609375 C 445.375 531.257812 445.183594 548.695312 445.183594 554.019531 C 445.183594 558.332031 448.09375 563.375 456.308594 561.78125 C 520.640625 540.363281 567 479.714844 567 408.214844 C 567 318.820312 494.46875 246.355469 405 246.355469 Z M 303.675781 476.933594 C 303.320312 477.742188 302.050781 477.980469 300.898438 477.425781 C 299.722656 476.894531 299.0625 475.804688 299.445312 474.996094 C 299.792969 474.164062 301.0625 473.933594 302.234375 474.492188 C 303.410156 475.023438 304.082031 476.121094 303.675781 476.933594 Z M 311.644531 484.039062 C 310.871094 484.746094 309.359375 484.417969 308.335938 483.292969 C 307.277344 482.15625 307.078125 480.648438 307.859375 479.929688 C 308.65625 479.207031 310.121094 479.550781 311.183594 480.675781 C 312.246094 481.8125 312.449219 483.316406 311.644531 484.039062 Z M 317.109375 493.128906 C 316.117188 493.8125 314.496094 493.167969 313.492188 491.726562 C 312.5 490.285156 312.5 488.566406 313.511719 487.871094 C 314.519531 487.175781 316.117188 487.808594 317.132812 489.234375 C 318.125 490.691406 318.125 492.421875 317.109375 493.128906 Z M 326.355469 503.652344 C 325.46875 504.625 323.574219 504.371094 322.191406 503.03125 C 320.773438 501.730469 320.382812 499.871094 321.273438 498.898438 C 322.171875 497.921875 324.074219 498.1875 325.46875 499.515625 C 326.871094 500.820312 327.304688 502.691406 326.355469 503.652344 Z M 338.304688 507.207031 C 337.914062 508.46875 336.089844 509.050781 334.257812 508.507812 C 332.425781 507.964844 331.226562 506.472656 331.59375 505.195312 C 331.976562 503.917969 333.804688 503.308594 335.652344 503.890625 C 337.484375 504.449219 338.6875 505.914062 338.304688 507.207031 Z M 351.902344 508.710938 C 351.949219 510.050781 350.394531 511.152344 348.46875 511.175781 C 346.53125 511.226562 344.960938 510.140625 344.941406 508.824219 C 344.941406 507.484375 346.460938 506.382812 348.398438 506.359375 C 350.328125 506.320312 351.902344 507.382812 351.902344 508.710938 Z M 365.261719 508.203125 C 365.492188 509.507812 364.15625 510.847656 362.242188 511.199219 C 360.363281 511.542969 358.621094 510.734375 358.378906 509.441406 C 358.148438 508.117188 359.511719 506.773438 361.386719 506.433594 C 363.304688 506.09375 365.019531 506.875 365.261719 508.203125 Z M 365.261719 508.203125 " fill-opacity="1" fill-rule="nonzero"/></g></svg>